<?xml version="1.0" standalone="no"?>
<!DOCTYPE svg PUBLIC "-//W3C//DTD SVG 1.1//EN" "http://www.w3.org/Graphics/SVG/1.1/DTD/svg11.dtd" >
<svg xmlns="http://www.w3.org/2000/svg">
<metadata>Generated by IcoMoon</metadata>
<defs>
<font id="icomoon" horiz-adv-x="1024">
<font-face units-per-em="1024" ascent="960" descent="-64" />
<missing-glyph horiz-adv-x="1024" />
<glyph unicode="&#x20;" horiz-adv-x="512" d="" />
<glyph unicode="&#xe900;" glyph-name="stairs" horiz-adv-x="1219" d="M642.087 239.948v299.136h306.004v299.136h266.196v117.009h-374.048v-299.136h-304.987v-299.136h-306.386v-299.136h-224.098v-117.009h331.95v299.136h305.368zM642.087 239.948v0z" />
<glyph unicode="&#xe901;" glyph-name="end" d="M772.202 448c0-143.705-116.496-260.202-260.202-260.202s-260.202 116.496-260.202 260.202c0 143.705 116.496 260.202 260.202 260.202s260.202-116.496 260.202-260.202zM913.824 447.99c0.028-1.783 0.045-3.887 0.045-5.995 0-221.941-179.918-401.859-401.859-401.859s-401.859 179.918-401.859 401.859c0 2.108 0.016 4.212 0.049 6.312-0.032 1.466-0.049 3.57-0.049 5.678 0 221.941 179.918 401.859 401.859 401.859s401.859-179.918 401.859-401.859c0-2.108-0.016-4.212-0.049-6.312zM976.108 447.99c0 256.315-207.784 464.099-464.099 464.099s-464.099-207.784-464.099-464.099c0-256.315 207.784-464.099 464.099-464.099s464.099 207.784 464.099 464.099z" />
<glyph unicode="&#xe902;" glyph-name="enter" horiz-adv-x="1088" d="M6.785 331.063v227.988h410.197v159.411l364.6-273.405c-142.019-98.904-260.77-188.684-376.123-282.482l11.523 168.488h-410.197zM624.492 30.045v-87.214h456.519v1010.385h-456.519v-87.214h366.771v-835.956h-366.771z" />
<glyph unicode="&#xe903;" glyph-name="escalator" horiz-adv-x="1534" d="M607.575 432.299l328.875 338.603c25.584 33.278 64.868 56.72 110.879 61.986 8.622 0.987 17.158 1.299 25.55 0.979l216.852 0.011c71.528-11.675 126.367-68.707 129.376-139.598 3.048-71.833-48.135-133.997-118.835-150.508l-218.583-0.198c-4.922-0.68-10.576-1.744-16.228-3.088-43.898-10.434-80.281-35.93-104.973-69.71-115.030-122.266-225.429-235.745-337.687-347.354-29.479-35.869-72.336-59.412-121.020-63.641l-242.536-0.049c-73.404 9.749-130.207 67.777-132.712 139.877-2.624 75.506 55.228 139.75 132.034 150.347l169.979 0.080c0.762 0.025 1.663 0.059 2.564 0.098 70.857 3.069 133.473 34.393 176.341 82.024zM532.993 458.923c-28.245-26.417-66.552-43.157-108.952-44.537l-153.192-0.007c-122.251-2.291-220.432-97.203-220.432-213.952 0-111.827 90.078-203.62 204.908-213.171l269.818-0.057c60.642 5.516 113.164 34.663 147.946 77.529l355.18 371.838c21.274 25.005 53.519 40.857 89.652 40.857 1.422 0 2.839-0.025 4.248-0.073l147.935-3.578c119.055 7.232 212.742 100.954 212.742 215.514 0 113.242-91.543 206.124-208.005 215.199l-191.959 3.806c-4.789 0.348-10.372 0.546-16.004 0.546-58.559 0-111.863-21.422-151.743-56.486l-382.142-393.426z" />
<glyph unicode="&#xe904;" glyph-name="exit" horiz-adv-x="1046" d="M264.794 336.915v227.988h410.197v159.411l364.6-273.405c-142.019-98.904-260.77-188.684-376.123-282.482l11.523 168.488h-410.197zM463.273 865.955v87.214h-456.519v-1010.385h456.519v87.214h-366.771v835.956h366.771z" />
<glyph unicode="&#xe905;" glyph-name="expand" horiz-adv-x="579" d="M6.224 887.883l68.217 65.893 498.764-508.059-496.44-503.411-70.541 72.864 432.871 432.871c-148.981 153.989-290.078 297.293-432.399 439.371z" />
<glyph unicode="&#xe906;" glyph-name="fork-left" horiz-adv-x="515" d="M497.739-56.837h-204.499c6.269 41.633 9.849 89.675 9.849 138.554 0 208.005-64.837 400.867-175.403 559.477l-91.892-84.917-28.584 396.529 380.031-110.307-94.001-81.723c134.314-184.083 214.895-414.822 214.895-664.382 0-54.040-3.779-107.198-11.086-159.224z" />
<glyph unicode="&#xe907;" glyph-name="fork-right" horiz-adv-x="515" d="M17.553-56.837h204.499c-6.269 41.633-9.849 89.675-9.849 138.554 0 208.005 64.837 400.867 175.403 559.477l91.892-84.917 28.584 396.529-380.031-110.307 94.001-81.723c-134.314-184.083-214.895-414.822-214.895-664.382 0-54.040 3.779-107.198 11.086-159.224z" />
<glyph unicode="&#xe908;" glyph-name="head" horiz-adv-x="672" d="M205.658 43.167l0.775-92.652h259.543l0.582 92.652h-260.9zM467.14 103.449l0.582 96.335h-263.226l0.775-96.335h261.869zM468.303 260.067l1.745 256.636h187.631c-99.652 122.111-205.248 261.759-305.869 405.153l-337.271-405.153h187.631l1.938-256.636h264.195z" />
<glyph unicode="&#xe909;" glyph-name="keep-left" d="M10.667 261.12v63.858l550.684 2.276v110.080l198.116-154.169c-77.478-49.809-141.972-94.393-204.319-140.415l6.204 118.37h-550.684z" />
<glyph unicode="&#xe90a;" glyph-name="keep-right" d="M759.516 261.12v63.858l-550.684 2.276v110.080l-198.116-154.169c77.478-49.809 141.972-94.393 204.319-140.415l-6.204 118.37h550.684z" />
<glyph unicode="&#xe90b;" glyph-name="lift" horiz-adv-x="819" d="M148.336 44.554v305.645h521.858v-305.645h-521.858zM48.909-57.503h720.712v509.584h-720.712v-509.584zM589.562 953.424h106.792v-213.583h115.559l-169.043-193.943c-58.976 72.613-114.291 135.761-171.745 196.861l118.437-2.917v213.583zM229.008 545.826h-106.792v213.583h-115.559l169.043 193.943c58.773-72.363 114.077-135.513 171.522-196.617l-118.214 2.674v-213.583z" />
<glyph unicode="&#xe90c;" glyph-name="merge" horiz-adv-x="613" d="M194.144-56.887v186.919c8.988 66.774 58.27 119.918 122.23 134.541 65.907-19.142 113.077-76.467 117.029-145.371l0.020-176.089h172.093v179.787c-5.681 124.865-79.616 231.208-185.157 283.078l-1.949 210.305h130.993l-224.453 336.679-243.032-336.679h127.052v-201.932c-115.4-64.77-193.958-183.223-201.884-320.614l-0.048-150.624h187.107z" />
<glyph unicode="&#xe90d;" glyph-name="ramp-left" horiz-adv-x="975" d="M741.802-56.587c83.64 0.514 162.64 0.414 241.505-0.263-15.669 11.193-15.392 24.239-15.392 37.351 0 368.563-218.815 686.019-533.623 829.545l41.222 142.714-468.273-93.655 280.964-388.715 65.462 154.675c232.551-107.491 391.319-338.447 392.116-606.794 0.078-26.37-1.371-52.389-4.265-77.971z" />
<glyph unicode="&#xe90e;" glyph-name="ramp-right" horiz-adv-x="975" d="M233.325-56.587c-83.64 0.514-162.64 0.414-241.505-0.263 15.669 11.193 15.392 24.239 15.392 37.351 0 368.563 218.815 686.019 533.623 829.545l-41.222 142.714 468.273-93.655-280.964-388.715-65.462 154.675c-232.551-107.491-391.319-338.447-392.116-606.794-0.078-26.37 1.371-52.389 4.265-77.971z" />
<glyph unicode="&#xe90f;" glyph-name="roundabout-left" horiz-adv-x="992" d="M366.579 530.967c8.651-110.55 100.435-196.978 212.394-196.978 117.641 0 213.007 95.422 213.007 213.13s-95.367 213.13-213.007 213.13c-73.27 0-137.9-37.016-176.23-93.378l93.684-135.905h-129.849zM156.049 530.967h-141.809c74.617 96.355 154.841 207.211 232.46 321.673l45.462-28.754c72.587 75.229 174.269 121.942 286.855 121.942 220.102 0 398.529-178.531 398.529-398.761 0-184.795-125.63-340.231-296.095-385.466l-2.781-211.347h-199.329v210.72c-168.050 44.453-291.19 191.86-298.588 369.191l-24.705 0.802z" />
<glyph unicode="&#xe910;" glyph-name="roundabout-right" horiz-adv-x="992" d="M625.134 530.967c-8.651-110.55-100.435-196.978-212.394-196.978-117.641 0-213.007 95.422-213.007 213.13s95.367 213.13 213.007 213.13c73.27 0 137.9-37.016 176.23-93.378l-93.684-135.905h129.849zM835.663 530.967h141.809c-74.617 96.355-154.841 207.211-232.46 321.673l-45.462-28.754c-72.587 75.229-174.269 121.942-286.855 121.942-220.102 0-398.529-178.531-398.529-398.761 0-184.795 125.63-340.231 296.095-385.466l2.781-211.347h199.329v210.72c168.050 44.453 291.19 191.86 298.588 369.191l24.705 0.802z" />
<glyph unicode="&#xe911;" glyph-name="start" d="M916.417 448.016c0-223.363-181.071-404.434-404.434-404.434s-404.434 181.071-404.434 404.434c0 223.363 181.071 404.434 404.434 404.434s404.434-181.071 404.434-404.434zM979.030 448.016c0.010 1.166 0.016 2.544 0.016 3.923 0 257.952-209.111 467.063-467.063 467.063s-467.063-209.111-467.063-467.063c0-1.379 0.006-2.757 0.018-4.133-0.012-0.955-0.018-2.334-0.018-3.713 0-257.952 209.111-467.063 467.063-467.063s467.063 209.111 467.063 467.063c0 1.379-0.006 2.757-0.018 4.133z" />
<glyph unicode="&#xe912;" glyph-name="straight" horiz-adv-x="494" d="M336.134-50.162h-185.427l0.185 667.168h-137.087l229.708 329.156c86.897-128.943 164.446-236.085 244.339-339.554l-144.891 10.398-6.827-667.168z" />
<glyph unicode="&#xe913;" glyph-name="turn-left" horiz-adv-x="929" d="M394.67 946.162v-139.67h437.829c45.139-1.004 81.469-37.334 82.472-82.379l0.002-774.276h-183.951v653.699h-336.352v-145.943l-380.817 241.147 380.817 247.421z" />
<glyph unicode="&#xe914;" glyph-name="turn-right" horiz-adv-x="929" d="M534.141 946.162v-139.67h-437.829c-45.139-1.004-81.469-37.334-82.472-82.379l-0.002-774.276h183.951v653.699h336.352v-145.943l380.817 241.147-380.817 247.421z" />
<glyph unicode="&#xe915;" glyph-name="turn-sharp-left" horiz-adv-x="1031" d="M195.523 654.884l52.098-91.535 369.456 229.237c3.836 2.072 8.391 3.481 13.267 3.907 18.381 1.608 34.682-11.317 37.556-29.255l-2.287-727.949-152.721-0.001 2.197 516.423-196.222-106.58 47.099-89.609-309.526 14.954 139.083 280.407z" />
<glyph unicode="&#xe916;" glyph-name="turn-sharp-right" horiz-adv-x="1031" d="M835.048 654.884l-52.098-91.535-369.456 229.237c-3.836 2.072-8.391 3.481-13.267 3.907-18.381 1.608-34.682-11.317-37.556-29.255l2.287-727.949 152.721-0.001-2.197 516.423 196.222-106.58-47.099-89.609 309.526 14.954-139.083 280.407z" />
<glyph unicode="&#xe917;" glyph-name="turn-slight-left" horiz-adv-x="1052" d="M586.34 757.726l-74.138-82.050 252.194-221.359 0.008-435.112-167.289 0.082 4.95 358.352-197.727 178.661-77.582-85.861-95.724 344.053 355.308-56.766z" />
<glyph unicode="&#xe918;" glyph-name="turn-slight-right" horiz-adv-x="1052" d="M465.43 757.726l74.138-82.050-252.194-221.359-0.008-435.112 167.289 0.082-4.95 358.352 197.727 178.661 77.582-85.861 95.724 344.053-355.308-56.766z" />
<glyph unicode="&#xe919;" glyph-name="uturn-left" horiz-adv-x="971" d="M736.625-56.986h227.618v671.258c-31.893 185.502-186.451 328.72-379.453 338.632-223.804 11.494-414.551-160.617-426.046-384.422-0.017-0.34-0.035-0.68-0.051-1.020l-151.68-0.696 262.593-331.982 275.311 331.982h-158.229c1.249 99.2 81.957 179.136 181.335 179.136 82.448 0 152.046-55.021 174.079-130.348l-5.477-672.54z" />
<glyph unicode="&#xe91a;" glyph-name="uturn-right" horiz-adv-x="971" d="M234.609-56.986h-227.618v671.258c31.893 185.502 186.451 328.72 379.453 338.632 223.804 11.494 414.551-160.617 426.046-384.422 0.017-0.34 0.035-0.68 0.051-1.020l151.68-0.696-262.593-331.982-275.311 331.982h158.229c-1.249 99.2-81.957 179.136-181.335 179.136-82.448 0-152.046-55.021-174.079-130.348l5.477-672.54z" />
</font>
</defs>
</svg>
